# xmcd CD database file
#
# Track frame offsets:
#	150
#	13199
#	27901
#	30689
#	42324
#	53476
#	66829
#	81531
#	83400
#	96540
#	110880
#	123881
#	138382
#	150397
#	162983
#	175618
#	190235
#	203651
#	222149
#	235569
#	247055
#	264966
#	282486
#	300545
#	327110
#	340464
#
# Disc length: 4689 seconds
#
# Revision: 0
# Processed by: cddbd v1.5.2PL0 Copyright (c) Steve Scherf et al.
# Submitted via: CDex 1.51
#
DISCID=69124f1a
DTITLE=Gerry Mulligan, Chat Baker Quartet - Complete Recordings
DYEAR=1953
DGENRE=Jazz
TTITLE0=Bernie's tune
TTITLE1=Lullaby of the leaves
TTITLE2=Utter chaos
TTITLE3=Line for Lyons
TTITLE4=Carioca
TTITLE5=My funny valentine
TTITLE6=Bark for barksdale
TTITLE7=Utter chaos
TTITLE8=Nights at the turntable
TTITLE9=Frenesi
TTITLE10=Arent't you glad you're you
TTITLE11=Walkin' shoes
TTITLE12=Soft shoe
TTITLE13=Freeway
TTITLE14=Limelight
TTITLE15=The lady is a tramp
TTITLE16=Turnstile
TTITLE17=Moonlight in Vermont
TTITLE18=Dinah
TTITLE19=She didn't say yes, she didn't say no
TTITLE20=Godchild
TTITLE21=Poinciana
TTITLE22=Aren't you glad you're you
TTITLE23=Get happy
TTITLE24=Cherry
TTITLE25=Carson city stage
EXTD=YEAR: 1953
EXTT0=
EXTT1=
EXTT2=
EXTT3=
EXTT4=
EXTT5=
EXTT6=
EXTT7=
EXTT8=
EXTT9=
EXTT10=
EXTT11=
EXTT12=
EXTT13=
EXTT14=
EXTT15=
EXTT16=
EXTT17=
EXTT18=
EXTT19=
EXTT20=
EXTT21=
EXTT22=
EXTT23=
EXTT24=
EXTT25=
PLAYORDER=
